<svg width="320" height="520" viewBox="0 0 320 520" fill="none" xmlns="http://www.w3.org/2000/svg">
  <defs>
    <linearGradient id="bg" x1="0" y1="0" x2="1" y2="1">
      <stop offset="0%" stop-color="#f6efe5" />
      <stop offset="100%" stop-color="#e4eef0" />
    </linearGradient>
    <linearGradient id="accent" x1="0" y1="0" x2="1" y2="1">
      <stop offset="0%" stop-color="#1f9f95" />
      <stop offset="100%" stop-color="#0f766e" />
    </linearGradient>
  </defs>
  <rect x="10" y="10" width="300" height="500" rx="24" fill="url(#bg)" stroke="rgba(12,21,20,0.12)" />
  <rect x="32" y="36" width="256" height="240" rx="18" fill="#ffffff" />
  <rect x="48" y="56" width="150" height="12" rx="6" fill="rgba(12,21,20,0.18)" />
  <rect x="48" y="78" width="110" height="10" rx="5" fill="rgba(12,21,20,0.12)" />
  <rect x="48" y="110" width="224" height="140" rx="14" fill="url(#accent)" opacity="0.88" />
  <rect x="32" y="296" width="256" height="18" rx="9" fill="rgba(12,21,20,0.1)" />
  <rect x="32" y="330" width="230" height="10" rx="5" fill="rgba(12,21,20,0.12)" />
  <rect x="32" y="350" width="200" height="10" rx="5" fill="rgba(12,21,20,0.1)" />
  <rect x="32" y="370" width="160" height="10" rx="5" fill="rgba(12,21,20,0.08)" />
  <rect x="32" y="412" width="110" height="32" rx="16" fill="rgba(31,159,149,0.18)" />
</svg>
